<svg xmlns="http://www.w3.org/2000/svg" viewBox="0 0 120 120" width="120" height="120">
  <defs>
    <linearGradient id="logoGradient" x1="0%" y1="0%" x2="100%" y2="100%">
      <stop offset="0%" style="stop-color:#667eea;stop-opacity:1" />
      <stop offset="100%" style="stop-color:#764ba2;stop-opacity:1" />
    </linearGradient>
    <filter id="shadow" x="-20%" y="-20%" width="140%" height="140%">
      <feDropShadow dx="2" dy="2" stdDeviation="3" flood-color="#000" flood-opacity="0.15"/>
    </filter>
  </defs>
  
  <!-- 背景圆形 -->
  <circle cx="60" cy="60" r="55" fill="url(#logoGradient)" filter="url(#shadow)"/>
  
  <!-- HK字母 -->
  <g fill="white" font-family="Arial, sans-serif" font-weight="bold">
    <!-- H -->
    <rect x="20" y="30" width="4" height="25" rx="2"/>
    <rect x="30" y="30" width="4" height="25" rx="2"/>
    <rect x="20" y="41" width="14" height="3" rx="1.5"/>
    
    <!-- K -->
    <rect x="40" y="30" width="4" height="25" rx="2"/>
    <polygon points="44,42 50,30 54,32 48,42 54,53 50,55 44,45" fill="white"/>
  </g>
  
  <!-- AI字母 -->
  <g fill="white" font-family="Arial, sans-serif" font-weight="bold">
    <!-- A -->
    <polygon points="68,55 72,30 76,30 80,55 76,55 75,48 73,48 72,55" fill="white"/>
    <rect x="73" y="43" width="2" height="3"/>
    
    <!-- I -->
    <rect x="88" y="30" width="12" height="3" rx="1.5"/>
    <rect x="93" y="30" width="2" height="25" rx="1"/>
    <rect x="88" y="52" width="12" height="3" rx="1.5"/>
  </g>
  
  <!-- 装饰性的技术元素 -->
  <g stroke="rgba(255,255,255,0.3)" stroke-width="1" fill="none">
    <circle cx="85" cy="75" r="3"/>
    <circle cx="78" cy="68" r="2"/>
    <circle cx="92" cy="82" r="2"/>
    <path d="M85,75 L78,68 M85,75 L92,82"/>
  </g>
  
  <!-- 小的装饰圆点 -->
  <circle cx="25" cy="70" r="1.5" fill="rgba(255,255,255,0.6)"/>
  <circle cx="35" cy="75" r="1" fill="rgba(255,255,255,0.4)"/>
  <circle cx="45" cy="72" r="1.2" fill="rgba(255,255,255,0.5)"/>
</svg>
